<svg id="Layer_1" data-name="Layer 1" xmlns="http://www.w3.org/2000/svg" viewBox="0 0 64 64"><defs><style>.cls-1{fill:#010101;}</style></defs><path class="cls-1" d="M32.43,57.06c-4.82,0-10.58-1.67-11.88-4.44-.59-1.27-.06-3.07.73-4.29a9.79,9.79,0,0,1,3.36-2.94c.49-.3,1.22-.75,1.28-1a7.18,7.18,0,0,0-.35-1.14,3.76,3.76,0,0,1-.31-1.71,2.51,2.51,0,0,1,1-2c.22-.23.5-.52.86-.92s.27-1.3-1.85-4.42A19.75,19.75,0,0,1,14.39,9.66C15.66,6.17,29.91,6,32.76,6c3.87,0,16.54.27,17.6,3.68C54,19,49.12,30.19,39.66,34.15c-2.18,3.2-2.4,4-1.92,4.52s.64.69.86.92a2.48,2.48,0,0,1,1,2,3.76,3.76,0,0,1-.31,1.71,8,8,0,0,0-.35,1.16,5.1,5.1,0,0,0,1.28.94,9.7,9.7,0,0,1,3.36,2.94c.79,1.22,1.32,3,.73,4.29C43.3,54.76,38.29,57.06,32.43,57.06Zm-.12-47c-8.63,0-13.08,1.73-13.08,2.47S23.68,15,32.31,15s13.08-1.73,13.08-2.48S40.94,10,32.31,10Z"/></svg>