<svg id="Layer_1" data-name="Layer 1" xmlns="http://www.w3.org/2000/svg" viewBox="0 0 64 64"><defs><style>.cls-1{fill:#010101;}</style></defs><path class="cls-1" d="M30.33,8.87A24.78,24.78,0,1,0,55.1,33.64,24.8,24.8,0,0,0,30.33,8.87Zm.59,12.61a.82.82,0,0,1,.51-.49.91.91,0,0,1,.42.2.88.88,0,0,1,.3.45l.57,1.91a.82.82,0,0,1,0,.41.9.9,0,0,1-.56.13L31,24a1.35,1.35,0,0,1-.26-.15,1.14,1.14,0,0,1-.2-.23.9.9,0,0,1-.16-.57Zm3,6.66h0l0,0a.89.89,0,0,1,.3.44L35.53,33a.79.79,0,0,1-.34.92L31.57,36a.86.86,0,0,1-1-.1L27,33s0,0-.05-.05a.86.86,0,0,1,0-.59l1.51-4.1a.85.85,0,0,1,.87-.53Zm1.89,11,1.08-.64a.89.89,0,0,1,.31-.11l.41,1.38a.8.8,0,0,1-.33.92.88.88,0,0,1-1-.1l-.87-.72A.9.9,0,0,1,35.78,39.19Zm-.45-23A18.11,18.11,0,0,1,45.58,24.7a.82.82,0,0,1,0,.73l-5.75-.56-1.46-.15a1,1,0,0,1-.78-.71Zm4.12,12.66a.71.71,0,0,1,.15-.15l1.53.15a.57.57,0,0,1,.13.08,1,1,0,0,1,.3.46.8.8,0,0,1-.34.91l-1.48.89a.94.94,0,0,1-.06-.15l-.4-1.35A.93.93,0,0,1,39.45,28.84Zm2.27,6.79,5.93-3.57a15.16,15.16,0,0,1-3.4,10.41,12.12,12.12,0,0,1-.91,1l0,0-2-6.82A.89.89,0,0,1,41.72,35.63Zm-27-7.06a.86.86,0,0,1,.36-.37l6.58,5.46a1,1,0,0,1,.26.32,1.12,1.12,0,0,1-.05.31l-2.6,7.1-.09,0a.86.86,0,0,1-.67-.21.62.62,0,0,1-.14-.14A16.8,16.8,0,0,1,14.74,28.57Zm6.55-.31a1.09,1.09,0,0,1-.22-.26.91.91,0,0,1,0-.49A.84.84,0,0,1,22,27l2,.19.21,0a.94.94,0,0,1,.07.75l-.42,1.15a.84.84,0,0,1-.62.53h-.09a.89.89,0,0,1-.27-.15Zm-4.1-5.71s0,0,0-.05a.82.82,0,0,1,.13-.61q.39-.55.81-1.08a14.92,14.92,0,0,1,9.62-5.34,1,1,0,0,1,.71.21l.12.12a.56.56,0,0,0,.05.08l-2.53,6.94a.87.87,0,0,1-.92.55Zm7.22,16.53L25,37.59a.9.9,0,0,1,.49-.31,1,1,0,0,1,.86.22l1.09.9,0,0a.88.88,0,0,1-.22.21l-1.63,1a.9.9,0,0,1-1-.1.91.91,0,0,1-.2-.24A.65.65,0,0,1,24.41,39.08Zm6.49,3.05a1,1,0,0,1,1.13.1l5.6,4.65a.72.72,0,0,1-.38.28A16.78,16.78,0,0,1,24.44,46Z"/></svg>