<svg id="Layer_1" data-name="Layer 1" xmlns="http://www.w3.org/2000/svg" viewBox="0 0 64 64"><defs><style>.cls-1{fill:#010101;}</style></defs><path class="cls-1" d="M34.06,63h-.4a1.5,1.5,0,0,1-.47-.08,13,13,0,0,1-7.56-4.17,1,1,0,0,1-.26-1,1.18,1.18,0,0,1,.71-.77c3.74-1.54,3.51-2.57,2.92-5.33A18.48,18.48,0,0,1,28.47,48,4.46,4.46,0,0,0,27,47.78a21.26,21.26,0,0,0-3.85.45,15.77,15.77,0,0,1-2.87.29c-3.11,0-5.39-1.2-6.28-3.3a4.66,4.66,0,0,1,.81-4.64,4.48,4.48,0,0,1,3.48-1.7,3.1,3.1,0,0,1,.42,0,5,5,0,0,1,3.73,2.9L28.39,41l-3-5.42a1,1,0,0,1-.11-.66c.15-.88,1.49-8.64,3-16.19,3.34-17.1,4.08-17.1,5.43-17.1h.41c1.38,0,2.48,0,5.66,17.11,1.35,7.29,2.5,14.73,2.72,16.15v0a1,1,0,0,1-.12.64l-3,5.42,5.92.85A5,5,0,0,1,49,38.9a3,3,0,0,1,.42,0,4.46,4.46,0,0,1,3.47,1.7,4.64,4.64,0,0,1,.81,4.64c-.88,2.1-3.17,3.3-6.27,3.3a15.69,15.69,0,0,1-2.87-.29,21.36,21.36,0,0,0-3.86-.45,4.43,4.43,0,0,0-1.43.17,19.77,19.77,0,0,1-.53,3.74c-.6,2.76-.82,3.79,2.91,5.33a1.15,1.15,0,0,1,.71.77,1,1,0,0,1-.26,1,13,13,0,0,1-7.57,4.18,1.76,1.76,0,0,1-.45.07Zm1.17-25.64,2.36-3.68,0,0c.07-.24.3-2-2.55-13Z"/></svg>