<svg id="Layer_1" data-name="Layer 1" xmlns="http://www.w3.org/2000/svg" viewBox="0 0 64 64"><defs><style>.cls-1{fill:#010101;}</style></defs><path class="cls-1" d="M19.24,36c-2.79,6.34-8.48,26.28-6.41,27.5a.23.23,0,0,0,.14,0,.32.32,0,0,0,.1.1C15.35,65,31.59,46.38,33.4,42.46l.06-.16A21.26,21.26,0,0,1,19.24,36Z"/><path class="cls-1" d="M46.4,28.34A19,19,0,0,0,42.24,17.8C39.76,14.37,37.8,11.66,41.06,1a.77.77,0,0,0-.19-.76A.83.83,0,0,0,40.38,0a.74.74,0,0,0-.26,0C32.7,2.07,28.26,9.36,28,20v0a11,11,0,0,1-1.05-.66,8,8,0,0,0-3.58-1.62,3.16,3.16,0,0,0-3.09,1.9c-.79,1.41-1.28,3.64-1.51,6.81-.59,8.18,6.12,13,13,13.46h0a14.78,14.78,0,0,0,10.81-3.27,11.46,11.46,0,0,0,3.82-8.21Zm-17.54,6c-.84-2.12,2-5.94,3.8-8.26,1.46,2.55,3.72,6.73,2.59,8.71-.47.82-1.58,1.25-3.31,1.28C30.24,35.77,29.21,35.19,28.86,34.31Z"/></svg>